# xmcd CD database file
#
# Track frame offsets:
#	150
#	12529
#	29603
#	52118
#
# Disc length: 904 seconds
#
# Revision: 0
# Processed by: cddbd v1.5.1PL0 Copyright (c) Steve Scherf et al.
# Submitted via: CDex 1.50
#
DISCID=33038604
DTITLE=Robinson Laura - Laura Robinson
DYEAR=2004
DGENRE=Jazz
TTITLE0=You'ld Be So Nice To Come Home To Gershwin
TTITLE1=The Man I Love Porter
TTITLE2=When Sunny Gets Blue Segal
TTITLE3=Where Do I Go? Robinson
EXTD=YEAR: 2004
EXTT0=
EXTT1=
EXTT2=
EXTT3=
PLAYORDER=
